<?xml version="1.0" standalone="no"?>
<!DOCTYPE svg PUBLIC "-//W3C//DTD SVG 20010904//EN"
 "http://www.w3.org/TR/2001/REC-SVG-20010904/DTD/svg10.dtd">
<svg version="1.0" xmlns="http://www.w3.org/2000/svg"
 width="256.000000pt" height="256.000000pt" viewBox="0 0 256.000000 256.000000"
 preserveAspectRatio="xMidYMid meet">
<metadata>
Created by potrace 1.14, written by Peter Selinger 2001-2017
</metadata>
<g transform="translate(0.000000,256.000000) scale(0.100000,-0.100000)"
fill="#000000" stroke="none">
<path d="M1474 2544 c-17 -8 -284 -270 -595 -582 -538 -541 -566 -570 -600
-642 -56 -116 -68 -160 -73 -280 -5 -111 41 -259 113 -363 47 -69 518 -537
584 -581 60 -39 144 -74 207 -84 19 -4 82 -7 140 -7 116 0 181 16 279 69 68
35 396 361 418 414 25 61 2 129 -61 176 -33 25 -112 27 -144 4 -12 -8 -95 -86
-186 -174 -191 -186 -217 -201 -341 -191 -41 3 -89 13 -108 22 -27 13 -180
161 -488 474 -83 84 -112 151 -108 244 3 62 21 119 49 154 56 72 500 517 530
533 116 60 277 36 356 -52 28 -31 264 -259 286 -276 75 -59 198 -8 222 91 17
70 2 91 -180 277 -175 177 -240 228 -334 260 l-48 16 139 143 c78 80 141 153
144 166 3 14 7 37 10 51 10 44 -29 110 -79 133 -50 25 -90 26 -132 5z"/>
<path d="M1137 1169 c-67 -7 -107 -38 -125 -95 -21 -68 14 -151 73 -176 23
-10 164 -13 600 -13 552 1 571 1 597 20 83 62 85 178 4 240 l-36 27 -528 2
c-290 0 -553 -2 -585 -5z"/>
</g>
</svg>
